<?xml version="1.0" encoding="UTF-8" standalone="no"?>
<!-- Created with Inkscape (http://www.inkscape.org/) -->

<svg
   xmlns:dc="http://purl.org/dc/elements/1.1/"
   xmlns:cc="http://creativecommons.org/ns#"
   xmlns:rdf="http://www.w3.org/1999/02/22-rdf-syntax-ns#"
   xmlns:svg="http://www.w3.org/2000/svg"
   xmlns="http://www.w3.org/2000/svg"
   xmlns:sodipodi="http://sodipodi.sourceforge.net/DTD/sodipodi-0.dtd"
   xmlns:inkscape="http://www.inkscape.org/namespaces/inkscape"
   id="svg3004"
   version="1.1"
   inkscape:version="0.48.2 r9819"
   width="282.5"
   height="111.25"
   xml:space="preserve"
   sodipodi:docname="woko-black-red.svg"><metadata
     id="metadata3010"><rdf:RDF><cc:Work
         rdf:about=""><dc:format>image/svg+xml</dc:format><dc:type
           rdf:resource="http://purl.org/dc/dcmitype/StillImage" /><dc:title></dc:title></cc:Work></rdf:RDF></metadata><defs
     id="defs3008"><clipPath
       clipPathUnits="userSpaceOnUse"
       id="clipPath3068"><path
         d="m 8117.9595,7982.0239 c 2.2182,1.9619 4.7832,3.5 7.5693,4.5005 2.8018,1.0064 5.8276,1.4697 8.9487,1.2744 3.023,-0.2016 5.982,-0.9917 8.6812,-2.3735 2.1265,-1.0879 4.0532,-2.5088 5.7241,-4.1939 0.3945,-0.3984 0.7754,-0.8115 1.1406,-1.2387 1.8721,-2.1861 3.3492,-4.7364 4.3306,-7.5279 0.9795,-2.7846 1.4644,-5.8081 1.3564,-8.9497 -0.1098,-3.1469 -0.7656,-6.3037 -2.0673,-9.1782 -1.2251,-2.7036 -2.9493,-4.9917 -5.0669,-6.8144 -0.4214,-0.3633 -0.8589,-0.7081 -1.3111,-1.0342 -1.9155,-1.3799 -4.0957,-2.4219 -6.477,-3.0996 -3.1021,-0.8819 -6.3677,-1.0874 -9.5718,-0.7842 -3.2178,0.3076 -6.2871,1.1382 -9.0488,2.4277 -2.7769,1.2959 -5.2422,3.0552 -7.232,5.2134 -1.9277,2.0908 -3.4091,4.5552 -4.2959,7.3335 -0.937,2.938 -1.1323,6.0586 -0.7441,9.1094 0.3906,3.0757 1.3325,5.9585 2.7134,8.5468 1.3823,2.5923 3.2041,4.8892 5.3506,6.7886 z"
         id="path3070" /></clipPath><clipPath
       clipPathUnits="userSpaceOnUse"
       id="clipPath3076"><path
         d="m 8109.5073,7942.3013 46.3111,0 0,45.6928 -46.3111,0 0,-45.6928 z"
         id="path3078" /></clipPath></defs><sodipodi:namedview
     pagecolor="#ffffff"
     bordercolor="#666666"
     borderopacity="1"
     objecttolerance="10"
     gridtolerance="10"
     guidetolerance="10"
     inkscape:pageopacity="0"
     inkscape:pageshadow="2"
     inkscape:window-width="1685"
     inkscape:window-height="938"
     id="namedview3006"
     showgrid="false"
     inkscape:zoom="4.1415929"
     inkscape:cx="131.14078"
     inkscape:cy="64.60105"
     inkscape:window-x="0"
     inkscape:window-y="0"
     inkscape:window-maximized="0"
     inkscape:current-layer="g3012" /><g
     id="g3012"
     inkscape:groupmode="layer"
     inkscape:label="woko_final"
     transform="matrix(1.25,0,0,-1.25,-160,861.11206)"><path
       inkscape:connector-curvature="0"
       id="path3016"
       style="fill:#000000;fill-opacity:1;fill-rule:nonzero;stroke:none"
       d="m 213.02236,656.25684 c 0,0 0,-18.94483 0,-18.94483 0,-2.59326 -0.49414,-5.04834 -1.48193,-7.35888 -0.98779,-2.31348 -2.35547,-4.34229 -4.10303,-6.08985 -1.74853,-1.74805 -3.76416,-3.1167 -6.04883,-4.10351 -2.28515,-0.98682 -4.75293,-1.4795 -7.40332,-1.4795 -3.10156,0 -5.97998,0.68946 -8.63086,2.07227 -2.65087,1.38184 -4.85009,3.25684 -6.59814,5.62646 -1.75195,-2.36962 -3.93945,-4.24462 -6.56201,-5.62646 -2.62647,-1.38281 -5.51758,-2.07227 -8.6792,-2.07227 -2.59815,0 -5.05371,0.49268 -7.36816,1.4795 -2.31543,0.98681 -4.34815,2.35546 -6.09815,4.10351 -1.74951,1.74756 -3.11719,3.77637 -4.10449,6.08985 -0.98828,2.31054 -1.48194,4.76562 -1.48194,7.35888 0,0 0,18.94483 0,18.94483 0,0 7.6167,0 7.6167,0 0,0 0,-18.95948 0,-18.95948 0,-1.58056 0.29786,-3.07763 0.89063,-4.48828 0.59326,-1.40967 1.4126,-2.6372 2.45703,-3.67969 1.04492,-1.04443 2.25928,-1.86279 3.64453,-2.45605 1.3833,-0.59326 2.8667,-0.88867 4.4502,-0.88867 1.58105,0 3.0791,0.29541 4.49121,0.88867 1.41162,0.59326 2.64062,1.41162 3.68554,2.45605 1.04444,1.04249 1.86475,2.27002 2.45948,3.67969 0.59228,1.41065 0.88965,2.90772 0.88965,4.48828 0,0 0,18.95948 0,18.95948 0,0 7.50488,0 7.50488,0 0,0 0,-18.95948 0,-18.95948 0,-1.58056 0.29541,-3.07763 0.88916,-4.48828 0.59326,-1.40967 1.41211,-2.6372 2.45654,-3.67969 1.04492,-1.04443 2.25977,-1.86279 3.64404,-2.45605 1.38428,-0.59326 2.86768,-0.88867 4.45118,-0.88867 1.58007,0 3.07763,0.29541 4.49072,0.88867 1.41211,0.59326 2.64111,1.41162 3.68603,2.45605 1.04395,1.04249 1.86426,2.27002 2.45899,3.67969 0.59375,1.41065 0.89062,2.90772 0.89062,4.48828 0,0 0,18.95948 0,18.95948 0,0 7.50293,0 7.50293,0 z" /><path
       inkscape:connector-curvature="0"
       id="path3018"
       style="fill:#000000;fill-opacity:1;fill-rule:nonzero;stroke:none"
       d="m 300.28105,643.96973 c -1.36718,-2.62256 -3.22265,-4.80371 -5.56445,-6.54493 2.3418,-1.74804 4.19727,-3.94628 5.56445,-6.59765 1.36817,-2.65039 2.05274,-5.52588 2.05274,-8.62695 0,0 0,-3.80616 0,-3.80616 0,0 -7.50391,0 -7.50391,0 0,0 0,3.80957 0,3.80957 0,1.57862 -0.29687,3.06104 -0.89062,4.44336 -0.59326,1.38184 -1.4126,2.59473 -2.45801,3.64014 -1.04443,1.04248 -2.25977,1.86035 -3.64355,2.45264 -1.38428,0.59375 -2.86817,0.89062 -4.44874,0.89062 -1.58251,0 -3.08105,-0.29687 -4.49365,-0.89062 -1.41211,-0.59229 -2.6416,-1.41016 -3.68652,-2.45264 -1.04492,-1.04541 -1.86328,-2.2583 -2.45557,-3.64014 -0.59375,-1.38232 -0.89013,-2.86474 -0.89013,-4.44336 0,0 0,-3.80957 0,-3.80957 0,0 -7.5044,0 -7.5044,0 0,0 0,3.80762 0,3.80762 0,0 0,49.40332 0,49.40332 0,0 7.5044,0 7.5044,0 0,0 0.0229,-34.34912 0.0229,-34.34912 1.63671,1.23779 3.42724,2.19043 5.37597,2.86621 1.94824,0.67432 3.9917,1.01221 6.13721,1.01221 1.58154,0 3.06348,0.29541 4.44531,0.88818 1.38184,0.59131 2.59522,1.40918 3.64014,2.45361 1.04443,1.04346 1.86133,2.26807 2.45459,3.68018 0.59375,1.40967 0.89062,2.90332 0.89062,4.48291 0,0 0,3.72168 0,3.72168 0,0 7.50391,0 7.50391,0 0,0 0,-3.72168 0,-3.72168 0,-3.1582 -0.68457,-6.04736 -2.05274,-8.66943 z" /><path
       inkscape:connector-curvature="0"
       id="path3020"
       style="fill:#000000;fill-opacity:1;fill-rule:nonzero;stroke:none"
       d="m 312.26836,637.19727 c 0,-1.58301 0.2959,-3.08057 0.89062,-4.49317 0.5918,-1.41211 1.41211,-2.6416 2.45801,-3.68555 1.04785,-1.04492 2.2793,-1.86328 3.69239,-2.45751 1.41503,-0.59327 2.91308,-0.88965 4.49804,-0.88965 1.58203,0 3.08106,0.29638 4.4961,0.88965 1.41503,0.59423 2.64453,1.41259 3.69238,2.45751 1.0459,1.04395 1.86816,2.27344 2.45996,3.68555 0.59277,1.4126 0.89258,2.91016 0.89258,4.49317 0,1.58105 -0.29981,3.06396 -0.89258,4.44921 -0.5918,1.38379 -1.41406,2.59913 -2.45996,3.64356 -1.04785,1.04492 -2.27735,1.86475 -3.69238,2.45752 -1.41504,0.59424 -2.91407,0.89062 -4.4961,0.89062 -1.58496,0 -3.08301,-0.29638 -4.49804,-0.89062 -1.41309,-0.59277 -2.64454,-1.4126 -3.69239,-2.45752 -1.0459,-1.04443 -1.86621,-2.25977 -2.45801,-3.64356 -0.59472,-1.38525 -0.89062,-2.86816 -0.89062,-4.44921 z m -7.3916,0 c 0,2.65039 0.49219,5.11523 1.48047,7.3999 0.98632,2.28467 2.33886,4.2876 4.06054,6.00635 1.71778,1.71923 3.73243,3.07177 6.0459,4.05859 2.31055,0.98779 4.76465,1.48193 7.35938,1.48193 2.64941,0 5.11523,-0.49414 7.40039,-1.48193 2.28125,-0.98682 4.2998,-2.33936 6.04687,-4.05859 1.74707,-1.71875 3.11426,-3.72168 4.10254,-6.00635 0.98535,-2.28467 1.47949,-4.74951 1.47949,-7.3999 0,-2.59375 -0.49414,-5.04639 -1.47949,-7.35791 -0.98828,-2.31348 -2.35547,-4.34229 -4.10254,-6.08985 -1.74707,-1.74853 -3.76562,-3.11621 -6.04687,-4.10254 -2.28516,-0.98779 -4.75098,-1.47998 -7.40039,-1.47998 -2.59473,0 -5.04883,0.49219 -7.35938,1.47998 -2.31347,0.98633 -4.32812,2.35401 -6.0459,4.10254 -1.72168,1.74756 -3.07422,3.77637 -4.06054,6.08985 -0.98828,2.31152 -1.48047,4.76416 -1.48047,7.35791 z" /><g
       inkscape:groupmode="layer"
       id="layer1"
       inkscape:label="Layer" /><path
       style="fill:#000000;fill-opacity:1;stroke:none"
       d="m 239.647,658.92352 c -2.51722,0.045 -5.0469,-0.22562 -7.56411,-0.90289 -3.93549,-1.27128 -6.84457,-2.60194 -10.44459,-7.00365 -1.99943,-2.58146 -3.1082,-5.94514 -3.2083,-7.07685 -0.37442,-3.07265 -0.3365,-4.32971 0.11709,-8.05297 0.83217,-4.36968 2.59396,-7.36659 4.9881,-10.17603 2.50973,-2.52137 4.76673,-4.21283 7.93881,-5.75909 4.71807,-1.85184 10.0864,-1.67637 14.1681,-0.48806 2.52596,0.82373 5.61592,1.75329 9.03948,5.36864 2.29854,3.01565 4.00812,6.17196 4.96469,9.51715 0.98714,4.95029 0.51649,9.67319 -1.85007,14.78819 -3.10532,4.94877 -6.33787,7.74967 -10.60849,8.83386 -2.51722,0.55883 -5.02349,0.90663 -7.54071,0.9517 z m 0.23418,-3.3814 c 3.16605,0.0209 6.13912,-0.5292 8.12616,-1.56179 2.58193,-1.41193 3.22756,-1.97744 0.96015,-4.11029 -1.94931,-1.65999 -5.24447,-2.82354 -9.34391,-3.29439 -0.85833,-0.0986 -3.92419,-0.1499 -4.80075,-0.0732 -6.19706,0.54196 -9.68166,1.63029 -7.86857,4.47634 2.04634,2.57497 4.43653,3.52245 9.71862,4.36812 1.11045,0.12071 2.24664,0.1873 3.2083,0.19521 z"
       id="path3440"
       inkscape:connector-curvature="0"
       sodipodi:nodetypes="scccccccccccscccscccc" /><path
       inkscape:connector-curvature="0"
       id="path3288"
       style="fill:#ff1a00;fill-opacity:1;fill-rule:nonzero;stroke:none"
       d="m 240.774,647.67216 c 0,0 -10.87695,24.59766 -10.87695,24.59766 -0.5542,1.25342 -2.0044,2.23975 -3.37354,2.29639 0,0 -14.53418,0.59033 -14.53418,0.59033 -0.75537,0.0308 -1.39209,-0.55615 -1.42236,-1.31153 -0.0312,-0.75488 0.55615,-1.39209 1.31103,-1.42285 0,0 14.53418,-0.59082 14.53418,-0.59082 0.3335,-0.0132 0.84717,-0.36279 0.98243,-0.66845 0,0 10.61035,-23.99512 10.61035,-23.99512 1.33691,-0.0996 2.30615,0.26074 2.76904,0.50439 z" /></g></svg>