<?xml version="1.0" encoding="UTF-8" standalone="no"?>
<!-- Created with Inkscape (http://www.inkscape.org/) -->

<svg
   xmlns:dc="http://purl.org/dc/elements/1.1/"
   xmlns:cc="http://creativecommons.org/ns#"
   xmlns:rdf="http://www.w3.org/1999/02/22-rdf-syntax-ns#"
   xmlns:svg="http://www.w3.org/2000/svg"
   xmlns="http://www.w3.org/2000/svg"
   xmlns:sodipodi="http://sodipodi.sourceforge.net/DTD/sodipodi-0.dtd"
   xmlns:inkscape="http://www.inkscape.org/namespaces/inkscape"
   id="svg3004"
   version="1.1"
   inkscape:version="0.48.2 r9819"
   width="282.5"
   height="111.25"
   xml:space="preserve"
   sodipodi:docname="woko_final.ai"><metadata
     id="metadata3010"><rdf:RDF><cc:Work
         rdf:about=""><dc:format>image/svg+xml</dc:format><dc:type
           rdf:resource="http://purl.org/dc/dcmitype/StillImage" /><dc:title></dc:title></cc:Work></rdf:RDF></metadata><defs
     id="defs3008"><clipPath
       clipPathUnits="userSpaceOnUse"
       id="clipPath3068"><path
         d="m 8117.9595,7982.0239 c 2.2182,1.9619 4.7832,3.5 7.5693,4.5005 2.8018,1.0064 5.8276,1.4697 8.9487,1.2744 3.023,-0.2016 5.982,-0.9917 8.6812,-2.3735 2.1265,-1.0879 4.0532,-2.5088 5.7241,-4.1939 0.3945,-0.3984 0.7754,-0.8115 1.1406,-1.2387 1.8721,-2.1861 3.3492,-4.7364 4.3306,-7.5279 0.9795,-2.7846 1.4644,-5.8081 1.3564,-8.9497 -0.1098,-3.1469 -0.7656,-6.3037 -2.0673,-9.1782 -1.2251,-2.7036 -2.9493,-4.9917 -5.0669,-6.8144 -0.4214,-0.3633 -0.8589,-0.7081 -1.3111,-1.0342 -1.9155,-1.3799 -4.0957,-2.4219 -6.477,-3.0996 -3.1021,-0.8819 -6.3677,-1.0874 -9.5718,-0.7842 -3.2178,0.3076 -6.2871,1.1382 -9.0488,2.4277 -2.7769,1.2959 -5.2422,3.0552 -7.232,5.2134 -1.9277,2.0908 -3.4091,4.5552 -4.2959,7.3335 -0.937,2.938 -1.1323,6.0586 -0.7441,9.1094 0.3906,3.0757 1.3325,5.9585 2.7134,8.5468 1.3823,2.5923 3.2041,4.8892 5.3506,6.7886 z"
         id="path3070" /></clipPath><clipPath
       clipPathUnits="userSpaceOnUse"
       id="clipPath3076"><path
         d="m 8109.5073,7942.3013 46.3111,0 0,45.6928 -46.3111,0 0,-45.6928 z"
         id="path3078" /></clipPath></defs><sodipodi:namedview
     pagecolor="#ffffff"
     bordercolor="#666666"
     borderopacity="1"
     objecttolerance="10"
     gridtolerance="10"
     guidetolerance="10"
     inkscape:pageopacity="0"
     inkscape:pageshadow="2"
     inkscape:window-width="1685"
     inkscape:window-height="938"
     id="namedview3006"
     showgrid="false"
     inkscape:zoom="4.1415929"
     inkscape:cx="141.25"
     inkscape:cy="55.625"
     inkscape:window-x="0"
     inkscape:window-y="0"
     inkscape:window-maximized="0"
     inkscape:current-layer="g3012" /><g
     id="g3012"
     inkscape:groupmode="layer"
     inkscape:label="woko_final"
     transform="matrix(1.25,0,0,-1.25,-160,861.11206)"><path
       inkscape:connector-curvature="0"
       id="path3016"
       style="fill:#000000;fill-opacity:1;fill-rule:nonzero;stroke:none"
       d="m 206.62236,656.25684 c 0,0 0,-18.94483 0,-18.94483 0,-2.59326 -0.49414,-5.04834 -1.48193,-7.35888 -0.98779,-2.31348 -2.35547,-4.34229 -4.10303,-6.08985 -1.74853,-1.74805 -3.76416,-3.1167 -6.04883,-4.10351 -2.28515,-0.98682 -4.75293,-1.4795 -7.40332,-1.4795 -3.10156,0 -5.97998,0.68946 -8.63086,2.07227 -2.65087,1.38184 -4.85009,3.25684 -6.59814,5.62646 -1.75195,-2.36962 -3.93945,-4.24462 -6.56201,-5.62646 -2.62647,-1.38281 -5.51758,-2.07227 -8.6792,-2.07227 -2.59815,0 -5.05371,0.49268 -7.36816,1.4795 -2.31543,0.98681 -4.34815,2.35546 -6.09815,4.10351 -1.74951,1.74756 -3.11719,3.77637 -4.10449,6.08985 -0.98828,2.31054 -1.48194,4.76562 -1.48194,7.35888 0,0 0,18.94483 0,18.94483 0,0 7.6167,0 7.6167,0 0,0 0,-18.95948 0,-18.95948 0,-1.58056 0.29786,-3.07763 0.89063,-4.48828 0.59326,-1.40967 1.4126,-2.6372 2.45703,-3.67969 1.04492,-1.04443 2.25928,-1.86279 3.64453,-2.45605 1.3833,-0.59326 2.8667,-0.88867 4.4502,-0.88867 1.58105,0 3.0791,0.29541 4.49121,0.88867 1.41162,0.59326 2.64062,1.41162 3.68554,2.45605 1.04444,1.04249 1.86475,2.27002 2.45948,3.67969 0.59228,1.41065 0.88965,2.90772 0.88965,4.48828 0,0 0,18.95948 0,18.95948 0,0 7.50488,0 7.50488,0 0,0 0,-18.95948 0,-18.95948 0,-1.58056 0.29541,-3.07763 0.88916,-4.48828 0.59326,-1.40967 1.41211,-2.6372 2.45654,-3.67969 1.04492,-1.04443 2.25977,-1.86279 3.64404,-2.45605 1.38428,-0.59326 2.86768,-0.88867 4.45118,-0.88867 1.58007,0 3.07763,0.29541 4.49072,0.88867 1.41211,0.59326 2.64111,1.41162 3.68603,2.45605 1.04395,1.04249 1.86426,2.27002 2.45899,3.67969 0.59375,1.41065 0.89062,2.90772 0.89062,4.48828 0,0 0,18.95948 0,18.95948 0,0 7.50293,0 7.50293,0 z" /><path
       inkscape:connector-curvature="0"
       id="path3018"
       style="fill:#000000;fill-opacity:1;fill-rule:nonzero;stroke:none"
       d="m 300.28105,643.96973 c -1.36718,-2.62256 -3.22265,-4.80371 -5.56445,-6.54493 2.3418,-1.74804 4.19727,-3.94628 5.56445,-6.59765 1.36817,-2.65039 2.05274,-5.52588 2.05274,-8.62695 0,0 0,-3.80616 0,-3.80616 0,0 -7.50391,0 -7.50391,0 0,0 0,3.80957 0,3.80957 0,1.57862 -0.29687,3.06104 -0.89062,4.44336 -0.59326,1.38184 -1.4126,2.59473 -2.45801,3.64014 -1.04443,1.04248 -2.25977,1.86035 -3.64355,2.45264 -1.38428,0.59375 -2.86817,0.89062 -4.44874,0.89062 -1.58251,0 -3.08105,-0.29687 -4.49365,-0.89062 -1.41211,-0.59229 -2.6416,-1.41016 -3.68652,-2.45264 -1.04492,-1.04541 -1.86328,-2.2583 -2.45557,-3.64014 -0.59375,-1.38232 -0.89013,-2.86474 -0.89013,-4.44336 0,0 0,-3.80957 0,-3.80957 0,0 -7.5044,0 -7.5044,0 0,0 0,3.80762 0,3.80762 0,0 0,49.40332 0,49.40332 0,0 7.5044,0 7.5044,0 0,0 0.0229,-34.34912 0.0229,-34.34912 1.63671,1.23779 3.42724,2.19043 5.37597,2.86621 1.94824,0.67432 3.9917,1.01221 6.13721,1.01221 1.58154,0 3.06348,0.29541 4.44531,0.88818 1.38184,0.59131 2.59522,1.40918 3.64014,2.45361 1.04443,1.04346 1.86133,2.26807 2.45459,3.68018 0.59375,1.40967 0.89062,2.90332 0.89062,4.48291 0,0 0,3.72168 0,3.72168 0,0 7.50391,0 7.50391,0 0,0 0,-3.72168 0,-3.72168 0,-3.1582 -0.68457,-6.04736 -2.05274,-8.66943 z" /><path
       inkscape:connector-curvature="0"
       id="path3020"
       style="fill:#000000;fill-opacity:1;fill-rule:nonzero;stroke:none"
       d="m 312.26836,637.19727 c 0,-1.58301 0.2959,-3.08057 0.89062,-4.49317 0.5918,-1.41211 1.41211,-2.6416 2.45801,-3.68555 1.04785,-1.04492 2.2793,-1.86328 3.69239,-2.45751 1.41503,-0.59327 2.91308,-0.88965 4.49804,-0.88965 1.58203,0 3.08106,0.29638 4.4961,0.88965 1.41503,0.59423 2.64453,1.41259 3.69238,2.45751 1.0459,1.04395 1.86816,2.27344 2.45996,3.68555 0.59277,1.4126 0.89258,2.91016 0.89258,4.49317 0,1.58105 -0.29981,3.06396 -0.89258,4.44921 -0.5918,1.38379 -1.41406,2.59913 -2.45996,3.64356 -1.04785,1.04492 -2.27735,1.86475 -3.69238,2.45752 -1.41504,0.59424 -2.91407,0.89062 -4.4961,0.89062 -1.58496,0 -3.08301,-0.29638 -4.49804,-0.89062 -1.41309,-0.59277 -2.64454,-1.4126 -3.69239,-2.45752 -1.0459,-1.04443 -1.86621,-2.25977 -2.45801,-3.64356 -0.59472,-1.38525 -0.89062,-2.86816 -0.89062,-4.44921 z m -7.3916,0 c 0,2.65039 0.49219,5.11523 1.48047,7.3999 0.98632,2.28467 2.33886,4.2876 4.06054,6.00635 1.71778,1.71923 3.73243,3.07177 6.0459,4.05859 2.31055,0.98779 4.76465,1.48193 7.35938,1.48193 2.64941,0 5.11523,-0.49414 7.40039,-1.48193 2.28125,-0.98682 4.2998,-2.33936 6.04687,-4.05859 1.74707,-1.71875 3.11426,-3.72168 4.10254,-6.00635 0.98535,-2.28467 1.47949,-4.74951 1.47949,-7.3999 0,-2.59375 -0.49414,-5.04639 -1.47949,-7.35791 -0.98828,-2.31348 -2.35547,-4.34229 -4.10254,-6.08985 -1.74707,-1.74853 -3.76562,-3.11621 -6.04687,-4.10254 -2.28516,-0.98779 -4.75098,-1.47998 -7.40039,-1.47998 -2.59473,0 -5.04883,0.49219 -7.35938,1.47998 -2.31347,0.98633 -4.32812,2.35401 -6.0459,4.10254 -1.72168,1.74756 -3.07422,3.77637 -4.06054,6.08985 -0.98828,2.31152 -1.48047,4.76416 -1.48047,7.35791 z" /><g
       transform="matrix(1,0,0,-1,-7897.8,8603.8896)"
       id="g3064"><g
         clip-path="url(#clipPath3068)"
         id="g3066"><g
           id="g3072"><g
             clip-path="url(#clipPath3076)"
             id="g3074"><path
               inkscape:connector-curvature="0"
               id="path3080"
               style="fill:#b7d30b;fill-opacity:1;fill-rule:nonzero;stroke:none"
               d="m 8117.9595,7982.0239 c -1.0733,-0.9497 -2.0655,-1.9985 -2.9619,-3.1343 0.6088,0.3624 1.2773,0.7095 1.9848,1.0376 0.8091,1.2916 1.7056,2.4898 2.7031,3.4869 -0.5957,-0.4356 -1.1718,-0.8995 -1.726,-1.3902 z" /><path
               inkscape:connector-curvature="0"
               id="path3082"
               style="fill:#b3cf06;fill-opacity:1;fill-rule:nonzero;stroke:none"
               d="m 8119.6855,7983.4141 c -0.9975,-0.9971 -1.894,-2.1953 -2.7031,-3.4869 0.7071,0.3282 1.4531,0.6373 2.2183,0.9239 0.7148,1.396 1.4975,2.6831 2.3306,3.7837 -0.6338,-0.3775 -1.2496,-0.7852 -1.8458,-1.2207 z" /><path
               inkscape:connector-curvature="0"
               id="path3084"
               style="fill:#b7d30b;fill-opacity:1;fill-rule:nonzero;stroke:none"
               d="m 8114.9976,7978.8896 c 1.2182,0.7242 2.6733,1.3887 4.2031,1.9615 -0.3574,-0.6978 -0.6978,-1.4234 -1.0191,-2.1665 -1.6196,-0.4707 -3.1621,-1.0142 -4.4555,-1.562 0.3989,0.6098 0.8232,1.1992 1.2715,1.767 z" /><path
               inkscape:connector-curvature="0"
               id="path3086"
               style="fill:#b7d30b;fill-opacity:1;fill-rule:nonzero;stroke:none"
               d="m 8113.7261,7977.1226 c 1.2934,0.5478 2.8359,1.0913 4.4555,1.562 -0.3212,-0.7432 -0.623,-1.5039 -0.9038,-2.2725 -1.7094,-0.3227 -3.3413,-0.709 -4.6689,-1.1767 0.3452,0.6479 0.7182,1.2773 1.1172,1.8872 z" /><path
               inkscape:connector-curvature="0"
               id="path3088"
               style="fill:#b0cc03;fill-opacity:1;fill-rule:nonzero;stroke:none"
               d="m 8121.5313,7984.6348 c 1.2666,0.7548 2.6044,1.3896 3.9975,1.8896 -0.2964,-0.626 -0.585,-1.2988 -0.8647,-2.0117 -1.4317,-0.4556 -2.9229,-1.0015 -4.3423,-1.6592 0.3891,0.6338 0.7929,1.231 1.2095,1.7813 z" /><path
               inkscape:connector-curvature="0"
               id="path3090"
               style="fill:#b8d40f;fill-opacity:1;fill-rule:nonzero;stroke:none"
               d="m 8120.3218,7982.8535 c 1.4194,0.6577 2.9106,1.2036 4.3423,1.6592 -0.2803,-0.7129 -0.5518,-1.4653 -0.8135,-2.251 -1.5161,-0.3574 -3.1201,-0.8379 -4.6499,-1.4106 0.3574,0.6977 0.7319,1.3686 1.1211,2.0024 z" /><path
               inkscape:connector-curvature="0"
               id="path3092"
               style="fill:#bfdb1a;fill-opacity:1;fill-rule:nonzero;stroke:none"
               d="m 8119.2007,7980.8511 c 0.7651,0.2866 1.5483,0.5498 2.3301,0.7861 -0.3091,-0.7397 -0.606,-1.5102 -0.8843,-2.3091 -0.8262,-0.1909 -1.6553,-0.4082 -2.4649,-0.6435 0.3213,0.7431 0.6617,1.4687 1.0191,2.1665 z" /><path
               inkscape:connector-curvature="0"
               id="path3094"
               style="fill:#c5e122;fill-opacity:1;fill-rule:nonzero;stroke:none"
               d="m 8118.1816,7978.6846 c 0.8096,0.2353 1.6387,0.4526 2.4649,0.6435 -0.2783,-0.7988 -0.5386,-1.626 -0.7744,-2.4775 -0.8653,-0.1318 -1.7393,-0.2774 -2.5943,-0.4385 0.2808,0.7686 0.5826,1.5293 0.9038,2.2725 z" /><path
               inkscape:connector-curvature="0"
               id="path3096"
               style="fill:#c3df20;fill-opacity:1;fill-rule:nonzero;stroke:none"
               d="m 8121.5308,7981.6372 c 0.7817,0.2363 1.562,0.4458 2.3198,0.6245 -0.2612,-0.7861 -0.5127,-1.605 -0.7525,-2.4497 -0.8007,-0.1294 -1.6245,-0.2934 -2.4516,-0.4839 0.2783,0.7989 0.5752,1.5694 0.8843,2.3091 z" /><path
               inkscape:connector-curvature="0"
               id="path3098"
               style="fill:#c9e529;fill-opacity:1;fill-rule:nonzero;stroke:none"
               d="m 8120.6465,7979.3281 c 0.8271,0.1905 1.6509,0.3545 2.4516,0.4839 -0.2397,-0.8447 -0.4682,-1.7153 -0.6835,-2.605 -0.8199,-0.1069 -1.6768,-0.2251 -2.5425,-0.3564 0.2358,0.8515 0.4961,1.6787 0.7744,2.4775 z" /><path
               inkscape:connector-curvature="0"
               id="path3100"
               style="fill:#adc900;fill-opacity:1;fill-rule:nonzero;stroke:none"
               d="m 8125.5288,7986.5244 c 2.8018,1.0064 5.8276,1.4697 8.9487,1.2744 -0.05,-0.7392 -0.1035,-1.5175 -0.1606,-2.3291 -3.2017,0.2051 -6.7764,-0.042 -9.6528,-0.957 0.2797,0.7129 0.5683,1.3857 0.8647,2.0117 z" /><path
               inkscape:connector-curvature="0"
               id="path3102"
               style="fill:#bbd714;fill-opacity:1;fill-rule:nonzero;stroke:none"
               d="m 8124.6641,7984.5127 c 2.8764,0.915 6.4511,1.1621 9.6528,0.957 -0.057,-0.8115 -0.1182,-1.6562 -0.1821,-2.5293 -3.3789,0.2251 -7.2412,0.035 -10.2842,-0.6787 0.2617,0.7857 0.5332,1.5381 0.8135,2.251 z" /><path
               inkscape:connector-curvature="0"
               id="path3104"
               style="fill:#c4e022;fill-opacity:1;fill-rule:nonzero;stroke:none"
               d="m 8123.8506,7982.2617 c 3.043,0.7139 6.9053,0.9038 10.2842,0.6787 -0.064,-0.873 -0.1309,-1.7744 -0.2002,-2.6987 -3.5557,0.2461 -7.628,0.084 -10.8365,-0.4297 0.2398,0.8447 0.4913,1.6636 0.7525,2.4497 z" /><path
               inkscape:connector-curvature="0"
               id="path3106"
               style="fill:#cae62b;fill-opacity:1;fill-rule:nonzero;stroke:none"
               d="m 8123.0981,7979.812 c 3.2085,0.5132 7.2808,0.6758 10.8365,0.4297 -0.069,-0.9243 -0.1416,-1.8716 -0.2154,-2.8359 -3.6362,0.2553 -8.021,0.2226 -11.3046,-0.1988 0.2153,0.8897 0.4438,1.7603 0.6835,2.605 z" /><path
               inkscape:connector-curvature="0"
               id="path3108"
               style="fill:#adc900;fill-opacity:1;fill-rule:nonzero;stroke:none"
               d="m 8134.4775,7987.7988 c 1.5118,-0.1006 3.0069,-0.3486 4.462,-0.7441 0.077,-0.6953 0.1396,-1.4463 0.1914,-2.2407 -1.6045,0.3452 -3.2461,0.5512 -4.814,0.6557 0.057,0.8116 0.1108,1.5899 0.1606,2.3291 z" /><path
               inkscape:connector-curvature="0"
               id="path3110"
               style="fill:#bbd714;fill-opacity:1;fill-rule:nonzero;stroke:none"
               d="m 8134.3169,7985.4697 c 1.5679,-0.1045 3.2095,-0.3105 4.814,-0.6557 0.052,-0.7945 0.093,-1.6324 0.125,-2.5015 -1.7002,0.3169 -3.4278,0.5146 -5.1211,0.6279 0.064,0.8731 0.125,1.7178 0.1821,2.5293 z" /><path
               inkscape:connector-curvature="0"
               id="path3112"
               style="fill:#c4e022;fill-opacity:1;fill-rule:nonzero;stroke:none"
               d="m 8134.1348,7982.9404 c 1.6933,-0.1133 3.4209,-0.311 5.1211,-0.6279 0.032,-0.8691 0.056,-1.7695 0.072,-2.689 -1.7783,0.2979 -3.5752,0.4966 -5.3935,0.6182 0.069,0.9243 0.1362,1.8257 0.2002,2.6987 z" /><path
               inkscape:connector-curvature="0"
               id="path3114"
               style="fill:#cae62b;fill-opacity:1;fill-rule:nonzero;stroke:none"
               d="m 8133.9346,7980.2417 c 1.8183,-0.1216 3.6152,-0.3203 5.3935,-0.6182 0.017,-0.9194 0.027,-1.8579 0.034,-2.8037 -1.8769,0.2754 -3.768,0.461 -5.6426,0.586 0.074,0.9643 0.146,1.9116 0.2154,2.8359 z" /><path
               inkscape:connector-curvature="0"
               id="path3116"
               style="fill:#b0cc02;fill-opacity:1;fill-rule:nonzero;stroke:none"
               d="m 8138.9395,7987.0547 c 1.455,-0.3955 2.8696,-0.9385 4.2192,-1.6294 0.2026,-0.6509 0.3926,-1.353 0.5688,-2.0977 -1.4228,0.6592 -2.9917,1.1421 -4.5966,1.4864 -0.052,0.7944 -0.1148,1.5454 -0.1914,2.2407 z" /><path
               inkscape:connector-curvature="0"
               id="path3118"
               style="fill:#bdd715;fill-opacity:1;fill-rule:nonzero;stroke:none"
               d="m 8139.1309,7984.814 c 1.6049,-0.3443 3.1738,-0.8272 4.5966,-1.4864 0.1758,-0.7446 0.3379,-1.5327 0.4859,-2.3549 -1.5835,0.5888 -3.2569,1.0234 -4.9575,1.3398 -0.032,0.8691 -0.073,1.707 -0.125,2.5015 z" /><path
               inkscape:connector-curvature="0"
               id="path3120"
               style="fill:#c7e022;fill-opacity:1;fill-rule:nonzero;stroke:none"
               d="m 8139.2559,7982.3125 c 1.7006,-0.3164 3.374,-0.751 4.9575,-1.3398 0.1479,-0.8223 0.2807,-1.6788 0.3989,-2.5616 -1.7446,0.5176 -3.5049,0.9141 -5.2842,1.2124 -0.017,0.9195 -0.04,1.8199 -0.072,2.689 z" /><path
               inkscape:connector-curvature="0"
               id="path3122"
               style="fill:#cfe72b;fill-opacity:1;fill-rule:nonzero;stroke:none"
               d="m 8139.3281,7979.6235 c 1.7793,-0.2983 3.5396,-0.6948 5.2842,-1.2124 0.1177,-0.8828 0.2202,-1.7915 0.3066,-2.7177 -1.8173,0.4853 -3.6801,0.851 -5.5571,1.1264 -0.01,0.9458 -0.017,1.8843 -0.034,2.8037 z" /><path
               inkscape:connector-curvature="0"
               id="path3124"
               style="fill:#b7d30b;fill-opacity:1;fill-rule:nonzero;stroke:none"
               d="m 8143.1587,7985.4253 c 1.063,-0.544 2.0767,-1.1714 3.0327,-1.8731 0.3228,-0.604 0.6172,-1.2626 0.8867,-1.9624 -1.0996,0.647 -2.2519,1.2256 -3.3506,1.7378 -0.1762,0.7447 -0.3662,1.4468 -0.5688,2.0977 z" /><path
               inkscape:connector-curvature="0"
               id="path3126"
               style="fill:#c2db1a;fill-opacity:1;fill-rule:nonzero;stroke:none"
               d="m 8143.7275,7983.3276 c 1.0987,-0.5122 2.251,-1.0908 3.3506,-1.7378 0.2696,-0.7002 0.5147,-1.4419 0.7393,-2.2109 -1.1914,0.6035 -2.4258,1.1514 -3.604,1.5938 -0.148,0.8222 -0.3101,1.6103 -0.4859,2.3549 z" /><path
               inkscape:connector-curvature="0"
               id="path3128"
               style="fill:#cce225;fill-opacity:1;fill-rule:nonzero;stroke:none"
               d="m 8144.2134,7980.9727 c 1.1782,-0.4424 2.4126,-0.9903 3.604,-1.5938 0.4492,-1.5381 0.8164,-3.1855 1.1333,-4.8315 -1.3545,0.4204 -2.7388,0.8042 -4.0318,1.146 -0.1728,1.8525 -0.4101,3.6347 -0.7055,5.2793 z" /><path
               inkscape:connector-curvature="0"
               id="path3130"
               style="fill:#bfdb18;fill-opacity:1;fill-rule:nonzero;stroke:none"
               d="m 8146.1914,7983.5522 c 0.9565,-0.7016 1.856,-1.478 2.6914,-2.3208 0.8853,-1.1132 1.6353,-2.4067 2.2788,-3.7812 -1.0049,0.666 -2.1528,1.3252 -3.3442,1.9287 -0.4492,1.5381 -0.9805,2.9658 -1.626,4.1733 z" /><path
               inkscape:connector-curvature="0"
               id="path3132"
               style="fill:#cde528;fill-opacity:1;fill-rule:nonzero;stroke:none"
               d="m 8147.8174,7979.3789 c 1.1914,-0.6035 2.3393,-1.2627 3.3442,-1.9287 0.6436,-1.375 1.1812,-2.8311 1.6421,-4.271 -1.1738,0.4897 -2.4985,0.9478 -3.853,1.3682 -0.3169,1.646 -0.6841,3.2934 -1.1333,4.8315 z" /><path
               inkscape:connector-curvature="0"
               id="path3134"
               style="fill:#c8e427;fill-opacity:1;fill-rule:nonzero;stroke:none"
               d="m 8148.8828,7981.2314 c 0.3945,-0.3984 0.7754,-0.8115 1.1406,-1.2387 0.9361,-1.0933 1.7735,-2.2774 2.4991,-3.5371 -0.4195,0.3359 -0.8863,0.6797 -1.3609,0.9946 -0.6435,1.3745 -1.3935,2.668 -2.2788,3.7812 z" /><path
               inkscape:connector-curvature="0"
               id="path3136"
               style="fill:#cde82c;fill-opacity:1;fill-rule:nonzero;stroke:none"
               d="m 8151.1616,7977.4502 c 0.4746,-0.3149 0.9414,-0.6587 1.3609,-0.9946 0.726,-1.2598 1.3408,-2.5952 1.8315,-3.9908 -0.4741,0.2442 -0.9956,0.483 -1.5503,0.7144 -0.4609,1.4399 -0.9985,2.896 -1.6421,4.271 z" /><path
               inkscape:connector-curvature="0"
               id="path3138"
               style="fill:#b7d30b;fill-opacity:1;fill-rule:nonzero;stroke:none"
               d="m 8112.6089,7975.2354 c -1.3809,-2.5884 -2.3228,-5.4712 -2.7134,-8.5469 1.501,-0.042 3.2481,-0.074 5.0806,-0.1079 0.3808,3.3344 1.1948,6.8198 2.3017,9.8315 -1.7094,-0.3227 -3.3413,-0.709 -4.6689,-1.1767 z" /><path
               inkscape:connector-curvature="0"
               id="path3140"
               style="fill:#c7e325;fill-opacity:1;fill-rule:nonzero;stroke:none"
               d="m 8117.2778,7976.4121 c -1.1069,-3.0117 -1.9209,-6.4971 -2.3017,-9.8315 1.8325,-0.034 3.7505,-0.069 5.5937,-0.1158 0.3716,3.5928 1.0122,7.3086 1.8448,10.7422 -1.6402,-0.2138 -3.4273,-0.4726 -5.1368,-0.7949 z" /><path
               inkscape:connector-curvature="0"
               id="path3142"
               style="fill:#cce82e;fill-opacity:1;fill-rule:nonzero;stroke:none"
               d="m 8122.4146,7977.207 c 3.2836,0.4214 7.6684,0.4541 11.3046,0.1988 -0.2837,-3.6983 -0.5957,-7.6548 -0.9062,-11.5728 -4.0596,0.2217 -8.5796,0.4043 -12.2432,0.6318 0.3716,3.5928 1.0122,7.3086 1.8448,10.7422 z" /><path
               inkscape:connector-curvature="0"
               id="path3144"
               style="fill:#cce82e;fill-opacity:1;fill-rule:nonzero;stroke:none"
               d="m 8133.7192,7977.4058 c -0.1421,-1.8492 -0.291,-3.7627 -0.4428,-5.7037 0.9839,-0.075 1.9814,-0.163 2.9843,-0.2636 0.099,1.957 0.1856,3.8916 0.2789,5.7304 -0.9419,0.097 -1.8833,0.1744 -2.8204,0.2369 z" /><path
               inkscape:connector-curvature="0"
               id="path3146"
               style="fill:#cfe92e;fill-opacity:1;fill-rule:nonzero;stroke:none"
               d="m 8136.5396,7977.1689 c 0.9418,-0.096 1.8837,-0.2114 2.8222,-0.3491 0.01,-0.9087 0,-1.8491 -0.012,-2.8076 -0.9829,0.1299 -1.9692,0.2412 -2.9473,0.3355 0.046,0.9585 0.091,1.9018 0.1373,2.8212 z" /><path
               inkscape:connector-curvature="0"
               id="path3148"
               style="fill:#d0e92d;fill-opacity:1;fill-rule:nonzero;stroke:none"
               d="m 8136.4023,7974.3477 c 0.9781,-0.094 1.9644,-0.2056 2.9473,-0.3355 -0.014,-0.9585 -0.038,-1.9351 -0.07,-2.915 -1.0068,0.1264 -2.0156,0.2402 -3.0186,0.3413 0.05,0.9785 0.096,1.9511 0.1416,2.9092 z" /><path
               inkscape:connector-curvature="0"
               id="path3150"
               style="fill:#cce82e;fill-opacity:1;fill-rule:nonzero;stroke:none"
               d="m 8133.2764,7971.7021 c -0.1524,-1.9414 -0.3081,-3.9101 -0.4634,-5.8691 1.0308,-0.086 2.0605,-0.1763 3.0903,-0.269 0.1455,1.935 0.2578,3.9165 0.3574,5.8745 -1.0029,0.1006 -2.0004,0.1889 -2.9843,0.2636 z" /><path
               inkscape:connector-curvature="0"
               id="path3152"
               style="fill:#d1ea2b;fill-opacity:1;fill-rule:nonzero;stroke:none"
               d="m 8136.2607,7971.4385 c 1.003,-0.1011 2.0118,-0.2149 3.0186,-0.3413 -0.033,-0.98 -0.074,-1.9644 -0.1221,-2.939 -1.0195,0.1182 -2.039,0.2305 -3.0576,0.3345 0.059,0.9819 0.1113,1.9668 0.1611,2.9458 z" /><path
               inkscape:connector-curvature="0"
               id="path3154"
               style="fill:#d1ea28;fill-opacity:1;fill-rule:nonzero;stroke:none"
               d="m 8136.0996,7968.4927 c 1.0186,-0.104 2.0381,-0.2163 3.0576,-0.3345 -0.049,-0.9746 -0.1045,-1.939 -0.167,-2.8799 -1.0288,0.098 -2.0576,0.1929 -3.0869,0.2857 0.073,0.9673 0.1372,1.9467 0.1963,2.9287 z" /><path
               inkscape:connector-curvature="0"
               id="path3156"
               style="fill:#d5eb2e;fill-opacity:1;fill-rule:nonzero;stroke:none"
               d="m 8139.3618,7976.8198 c 0.9385,-0.1377 1.8736,-0.2978 2.8013,-0.4844 0.06,-0.8979 0.097,-1.8281 0.1162,-2.7749 -0.9668,0.1714 -1.9463,0.3213 -2.9297,0.4517 0.014,0.9585 0.019,1.8989 0.012,2.8076 z" /><path
               inkscape:connector-curvature="0"
               id="path3158"
               style="fill:#d8ed2b;fill-opacity:1;fill-rule:nonzero;stroke:none"
               d="m 8139.3496,7974.0122 c 0.9834,-0.1304 1.9629,-0.2803 2.9297,-0.4517 0.019,-0.9472 0.02,-1.9116 0.01,-2.8779 -0.9956,0.1499 -2.0005,0.2881 -3.0073,0.4146 0.032,0.9799 0.056,1.9565 0.07,2.915 z" /><path
               inkscape:connector-curvature="0"
               id="path3160"
               style="fill:#dbec2e;fill-opacity:1;fill-rule:nonzero;stroke:none"
               d="m 8142.1631,7976.3354 c 0.9272,-0.1865 1.8472,-0.3994 2.7558,-0.642 0.084,-0.8931 0.1529,-1.8028 0.2061,-2.7207 -0.9277,0.2207 -1.8799,0.415 -2.8457,0.5878 -0.02,0.9468 -0.057,1.877 -0.1162,2.7749 z" /><path
               inkscape:connector-curvature="0"
               id="path3162"
               style="fill:#e1f028;fill-opacity:1;fill-rule:nonzero;stroke:none"
               d="m 8142.2793,7973.5605 c 0.9658,-0.1728 1.918,-0.3671 2.8457,-0.5878 0.053,-0.918 0.091,-1.8453 0.1118,-2.7735 -0.9682,0.1724 -1.9546,0.334 -2.9502,0.4834 0.013,0.9663 0.012,1.9307 -0.01,2.8779 z" /><path
               inkscape:connector-curvature="0"
               id="path3164"
               style="fill:#dbef24;fill-opacity:1;fill-rule:nonzero;stroke:none"
               d="m 8139.2793,7971.0972 c 1.0068,-0.1265 2.0117,-0.2647 3.0073,-0.4146 -0.013,-0.9658 -0.04,-1.9341 -0.076,-2.8896 -1.0166,0.125 -2.0351,0.247 -3.0537,0.3652 0.048,0.9746 0.089,1.959 0.1221,2.939 z" /><path
               inkscape:connector-curvature="0"
               id="path3166"
               style="fill:#ddf01c;fill-opacity:1;fill-rule:nonzero;stroke:none"
               d="m 8139.1572,7968.1582 c 1.0186,-0.1182 2.0371,-0.2402 3.0537,-0.3652 -0.036,-0.9551 -0.082,-1.897 -0.1338,-2.8111 -1.0288,0.1001 -2.0576,0.1993 -3.0869,0.2964 0.062,0.9409 0.1182,1.9053 0.167,2.8799 z" /><path
               inkscape:connector-curvature="0"
               id="path3168"
               style="fill:#e6f31c;fill-opacity:1;fill-rule:nonzero;stroke:none"
               d="m 8142.2866,7970.6826 c 0.9956,-0.1494 1.982,-0.311 2.9502,-0.4834 0.021,-0.9282 0.026,-1.8574 0.014,-2.7803 -1.0098,0.1241 -2.0239,0.25 -3.0401,0.3741 0.036,0.9555 0.063,1.9238 0.076,2.8896 z" /><path
               inkscape:connector-curvature="0"
               id="path3170"
               style="fill:#e9f510;fill-opacity:1;fill-rule:nonzero;stroke:none"
               d="m 8142.2109,7967.793 c 1.0162,-0.1241 2.0303,-0.25 3.0401,-0.3741 -0.012,-0.9223 -0.041,-1.8383 -0.087,-2.7402 -1.0288,0.1016 -2.0576,0.2031 -3.0865,0.3032 0.052,0.9141 0.098,1.856 0.1338,2.8111 z" /><path
               inkscape:connector-curvature="0"
               id="path3172"
               style="fill:#dded2e;fill-opacity:1;fill-rule:nonzero;stroke:none"
               d="m 8144.9189,7975.6934 c 0.6465,-0.1709 1.316,-0.3526 1.9932,-0.5435 0.1065,-0.8652 0.2017,-1.7466 0.2822,-2.6372 -0.7109,0.1514 -1.4082,0.3027 -2.0693,0.46 -0.053,0.9179 -0.1221,1.8276 -0.2061,2.7207 z" /><path
               inkscape:connector-curvature="0"
               id="path3174"
               style="fill:#e4f227;fill-opacity:1;fill-rule:nonzero;stroke:none"
               d="m 8145.125,7972.9727 c 0.6611,-0.1573 1.3584,-0.3086 2.0693,-0.46 0.08,-0.8911 0.1455,-1.791 0.1919,-2.6939 -0.7329,0.1275 -1.4555,0.2535 -2.1494,0.3804 -0.021,0.9282 -0.059,1.8555 -0.1118,2.7735 z" /><path
               inkscape:connector-curvature="0"
               id="path3176"
               style="fill:#dced2e;fill-opacity:1;fill-rule:nonzero;stroke:none"
               d="m 8146.9121,7975.1499 c 0.6768,-0.1909 1.3613,-0.3921 2.0386,-0.6025 0.1567,-0.8042 0.2886,-1.6421 0.396,-2.5 -0.7168,0.1606 -1.4414,0.313 -2.1524,0.4653 -0.081,0.8906 -0.1757,1.772 -0.2822,2.6372 z" /><path
               inkscape:connector-curvature="0"
               id="path3178"
               style="fill:#e2f028;fill-opacity:1;fill-rule:nonzero;stroke:none"
               d="m 8147.1943,7972.5127 c 0.711,-0.1523 1.4356,-0.3047 2.1524,-0.4653 0.1079,-0.8579 0.1914,-1.7354 0.25,-2.6187 -0.7344,0.1333 -1.4776,0.2627 -2.2105,0.3901 -0.046,0.9029 -0.1118,1.8028 -0.1919,2.6939 z" /><path
               inkscape:connector-curvature="0"
               id="path3180"
               style="fill:#eaf519;fill-opacity:1;fill-rule:nonzero;stroke:none"
               d="m 8145.2368,7970.1992 c 0.6939,-0.1269 1.4165,-0.2529 2.1494,-0.3804 0.047,-0.9028 0.075,-1.8081 0.08,-2.7089 -0.7456,0.1089 -1.4883,0.2133 -2.2153,0.309 0.012,0.9229 0.01,1.8521 -0.014,2.7803 z" /><path
               inkscape:connector-curvature="0"
               id="path3182"
               style="fill:#eef70b;fill-opacity:1;fill-rule:nonzero;stroke:none"
               d="m 8145.251,7967.4189 c 0.727,-0.096 1.4697,-0.2001 2.2153,-0.309 0.01,-0.9009 -0.012,-1.7974 -0.056,-2.6827 -0.753,0.084 -1.5049,0.169 -2.2466,0.2515 0.046,0.9019 0.076,1.8179 0.087,2.7402 z" /><path
               inkscape:connector-curvature="0"
               id="path3184"
               style="fill:#e6f31c;fill-opacity:1;fill-rule:nonzero;stroke:none"
               d="m 8147.3862,7969.8188 c 0.7329,-0.1274 1.4761,-0.2568 2.2105,-0.3901 0.059,-0.8833 0.094,-1.7724 0.1045,-2.6528 -0.7398,0.1128 -1.4888,0.2261 -2.2349,0.334 -0.01,0.9008 -0.033,1.8061 -0.08,2.7089 z" /><path
               inkscape:connector-curvature="0"
               id="path3186"
               style="fill:#e9f510;fill-opacity:1;fill-rule:nonzero;stroke:none"
               d="m 8147.4663,7967.1099 c 0.7461,-0.1079 1.4951,-0.2212 2.2349,-0.334 0.011,-0.8804 0,-1.752 -0.041,-2.6011 -0.7437,0.083 -1.4971,0.168 -2.25,0.2524 0.044,0.8853 0.061,1.7818 0.056,2.6827 z" /><path
               inkscape:connector-curvature="0"
               id="path3188"
               style="fill:#d8ec2e;fill-opacity:1;fill-rule:nonzero;stroke:none"
               d="m 8148.9507,7974.5474 c 0.6772,-0.2105 1.3472,-0.4302 1.9946,-0.6582 0.2066,-0.7427 0.374,-1.5332 0.5078,-2.3521 -0.6797,0.1826 -1.3891,0.3501 -2.1064,0.5103 -0.1074,0.8579 -0.2393,1.6958 -0.396,2.5 z" /><path
               inkscape:connector-curvature="0"
               id="path3190"
               style="fill:#dbee2b;fill-opacity:1;fill-rule:nonzero;stroke:none"
               d="m 8149.3467,7972.0474 c 0.7173,-0.1602 1.4267,-0.3277 2.1064,-0.5103 0.1333,-0.8188 0.2324,-1.666 0.3018,-2.5215 -0.6983,0.1431 -1.4238,0.2803 -2.1582,0.4131 -0.059,0.8833 -0.1421,1.7608 -0.25,2.6187 z" /><path
               inkscape:connector-curvature="0"
               id="path3192"
               style="fill:#d3ea2e;fill-opacity:1;fill-rule:nonzero;stroke:none"
               d="m 8150.9453,7973.8892 c 0.4131,-1.4854 0.6709,-3.1621 0.8096,-4.8736 0.6987,-0.1435 1.3701,-0.2929 1.9951,-0.4511 -0.1792,1.6127 -0.4873,3.185 -0.9463,4.6147 -0.5869,0.2446 -1.2114,0.4819 -1.8584,0.71 z" /><path
               inkscape:connector-curvature="0"
               id="path3194"
               style="fill:#ddef24;fill-opacity:1;fill-rule:nonzero;stroke:none"
               d="m 8149.5967,7969.4287 c 0.7344,-0.1328 1.4599,-0.27 2.1582,-0.4131 0.07,-0.8559 0.1094,-1.7207 0.124,-2.5747 -0.708,0.1094 -1.4385,0.2222 -2.1777,0.335 -0.011,0.8804 -0.045,1.7695 -0.1045,2.6528 z" /><path
               inkscape:connector-curvature="0"
               id="path3196"
               style="fill:#def01c;fill-opacity:1;fill-rule:nonzero;stroke:none"
               d="m 8149.7012,7966.7759 c 0.7392,-0.1128 1.4697,-0.2256 2.1777,-0.335 0.015,-0.854 0,-1.6972 -0.028,-2.5102 -0.7134,0.079 -1.4473,0.1606 -2.1904,0.2441 0.038,0.8491 0.052,1.7207 0.041,2.6011 z" /><path
               inkscape:connector-curvature="0"
               id="path3198"
               style="fill:#d3eb2b;fill-opacity:1;fill-rule:nonzero;stroke:none"
               d="m 8151.7549,7969.0156 c 0.1396,-1.7119 0.1592,-3.459 0.096,-5.0849 0.7139,-0.079 1.4072,-0.1553 2.0703,-0.2271 0.058,1.5933 0.01,3.2476 -0.1709,4.8609 -0.625,0.1582 -1.2964,0.3076 -1.9951,0.4511 z" /><path
               inkscape:connector-curvature="0"
               id="path3200"
               style="fill:#cfe92e;fill-opacity:1;fill-rule:nonzero;stroke:none"
               d="m 8152.8037,7973.1792 c 0.5547,-0.2314 1.0762,-0.4702 1.5503,-0.7144 0.9795,-2.7846 1.4644,-5.8081 1.3564,-8.9497 -0.5639,0.058 -1.163,0.1211 -1.7895,0.1885 0.1157,3.1865 -0.1997,6.6162 -1.1172,9.4756 z" /><path
               inkscape:connector-curvature="0"
               id="path3202"
               style="fill:#b7d30b;fill-opacity:1;fill-rule:nonzero;stroke:none"
               d="m 8109.8955,7966.6885 c -0.3882,-3.0508 -0.1929,-6.1714 0.7441,-9.1094 1.2842,-0.5249 2.8936,-1.04 4.5948,-1.5039 -0.6099,3.3984 -0.6509,7.0561 -0.2583,10.5054 -1.8325,0.034 -3.5796,0.066 -5.0806,0.1079 z" /><path
               inkscape:connector-curvature="0"
               id="path3204"
               style="fill:#c7e325;fill-opacity:1;fill-rule:nonzero;stroke:none"
               d="m 8114.9761,7966.5806 c -0.3926,-3.4493 -0.3516,-7.107 0.2583,-10.5054 1.7011,-0.4639 3.4941,-0.8765 5.1445,-1.1973 -0.2832,3.8589 -0.206,7.7393 0.1909,11.5869 -1.8432,0.047 -3.7612,0.082 -5.5937,0.1158 z" /><path
               inkscape:connector-curvature="0"
               id="path3206"
               style="fill:#cce82e;fill-opacity:1;fill-rule:nonzero;stroke:none"
               d="m 8120.5698,7966.4648 c 3.6636,-0.2275 8.1836,-0.4101 12.2432,-0.6318 -0.3306,-4.1816 -0.6436,-8.3642 -0.9214,-12.5498 -3.7109,0.2114 -8.2314,0.8379 -11.5127,1.5947 -0.2832,3.8589 -0.206,7.7393 0.1909,11.5869 z" /><path
               inkscape:connector-curvature="0"
               id="path3208"
               style="fill:#cce82e;fill-opacity:1;fill-rule:nonzero;stroke:none"
               d="m 8132.813,7965.833 c -0.1655,-2.0908 -0.3262,-4.1816 -0.4805,-6.2734 1.0034,-0.087 2.023,-0.169 3.0503,-0.2447 0.1851,2.0894 0.3648,4.1792 0.5205,6.2491 -1.0298,0.093 -2.0595,0.1826 -3.0903,0.269 z" /><path
               inkscape:connector-curvature="0"
               id="path3210"
               style="fill:#d2ea27;fill-opacity:1;fill-rule:nonzero;stroke:none"
               d="m 8135.9033,7965.564 c 1.0293,-0.093 2.0581,-0.188 3.0869,-0.2857 -0.066,-1.0117 -0.1425,-2.0366 -0.2275,-3.0674 -1.0376,0.077 -2.0752,0.1553 -3.1089,0.2359 0.087,1.0425 0.1714,2.0825 0.2495,3.1172 z" /><path
               inkscape:connector-curvature="0"
               id="path3212"
               style="fill:#d1ea28;fill-opacity:1;fill-rule:nonzero;stroke:none"
               d="m 8135.6538,7962.4468 c 1.0337,-0.081 2.0713,-0.1587 3.1089,-0.2359 -0.085,-1.0312 -0.1787,-2.0683 -0.2803,-3.1045 -1.0361,0.063 -2.0722,0.1329 -3.0996,0.2085 0.093,1.0445 0.1836,2.0894 0.271,3.1319 z" /><path
               inkscape:connector-curvature="0"
               id="path3214"
               style="fill:#cce82e;fill-opacity:1;fill-rule:nonzero;stroke:none"
               d="m 8132.3325,7959.5596 c -0.1543,-2.0918 -0.3022,-4.1836 -0.4409,-6.2764 0.9756,-0.088 1.9556,-0.1582 2.9385,-0.2119 0.1767,2.0659 0.3677,4.1543 0.5527,6.2436 -1.0273,0.076 -2.0469,0.1578 -3.0503,0.2447 z" /><path
               inkscape:connector-curvature="0"
               id="path3216"
               style="fill:#cfe92b;fill-opacity:1;fill-rule:nonzero;stroke:none"
               d="m 8135.3828,7959.3149 c 1.0274,-0.076 2.0635,-0.1455 3.0996,-0.2085 -0.1015,-1.0361 -0.2109,-2.0708 -0.3281,-3.0976 -1.0195,0.047 -2.04,0.1055 -3.0508,0.1758 0.093,1.0415 0.1865,2.0859 0.2793,3.1303 z" /><path
               inkscape:connector-curvature="0"
               id="path3218"
               style="fill:#cde82d;fill-opacity:1;fill-rule:nonzero;stroke:none"
               d="m 8135.1035,7956.1846 c 1.0108,-0.07 2.0313,-0.1289 3.0508,-0.1758 -0.1172,-1.0264 -0.2412,-2.0449 -0.3716,-3.0479 -0.9853,0.02 -1.9702,0.057 -2.9526,0.1104 0.088,1.0332 0.1802,2.0718 0.2734,3.1133 z" /><path
               inkscape:connector-curvature="0"
               id="path3220"
               style="fill:#def019;fill-opacity:1;fill-rule:nonzero;stroke:none"
               d="m 8138.9902,7965.2783 c 1.0293,-0.097 2.0581,-0.1963 3.0869,-0.2964 -0.056,-0.9882 -0.124,-1.9912 -0.206,-3.0005 -1.0332,0.076 -2.0713,0.1524 -3.1084,0.2295 0.085,1.0308 0.1611,2.0557 0.2275,3.0674 z" /><path
               inkscape:connector-curvature="0"
               id="path3222"
               style="fill:#dbef1c;fill-opacity:1;fill-rule:nonzero;stroke:none"
               d="m 8138.7627,7962.2109 c 1.0371,-0.077 2.0752,-0.1533 3.1084,-0.2295 -0.082,-1.0097 -0.1777,-2.0258 -0.2881,-3.04 -1.0283,0.047 -2.0644,0.1025 -3.1006,0.165 0.1016,1.0362 0.1953,2.0733 0.2803,3.1045 z" /><path
               inkscape:connector-curvature="0"
               id="path3224"
               style="fill:#eaf50b;fill-opacity:1;fill-rule:nonzero;stroke:none"
               d="m 8142.0771,7964.9819 c 1.0289,-0.1001 2.0577,-0.2016 3.0865,-0.3032 -0.051,-0.9775 -0.1206,-1.9551 -0.209,-2.9316 -1.021,0.08 -2.0508,0.1572 -3.0835,0.2343 0.082,1.0093 0.1504,2.0123 0.206,3.0005 z" /><path
               inkscape:connector-curvature="0"
               id="path3226"
               style="fill:#e6f310;fill-opacity:1;fill-rule:nonzero;stroke:none"
               d="m 8141.8711,7961.9814 c 1.0327,-0.077 2.0625,-0.1547 3.0835,-0.2343 -0.088,-0.9766 -0.1953,-1.9517 -0.3198,-2.9248 -1.0039,0.031 -2.024,0.071 -3.0518,0.1191 0.1104,1.0142 0.2061,2.0303 0.2881,3.04 z" /><path
               inkscape:connector-curvature="0"
               id="path3228"
               style="fill:#d5ec23;fill-opacity:1;fill-rule:nonzero;stroke:none"
               d="m 8138.4824,7959.1064 c 1.0362,-0.062 2.0723,-0.1176 3.1006,-0.165 -0.1103,-1.0146 -0.2353,-2.0268 -0.376,-3.0293 -1.0122,0.018 -2.0322,0.051 -3.0527,0.097 0.1172,1.0268 0.2266,2.0615 0.3281,3.0976 z" /><path
               inkscape:connector-curvature="0"
               id="path3230"
               style="fill:#cfe92b;fill-opacity:1;fill-rule:nonzero;stroke:none"
               d="m 8138.1543,7956.0088 c 1.0205,-0.046 2.0405,-0.079 3.0527,-0.097 -0.1406,-1.0019 -0.2968,-1.9936 -0.4692,-2.9668 -0.9839,-0.01 -1.9697,-0.01 -2.9551,0.016 0.1304,1.003 0.2544,2.0215 0.3716,3.0479 z" /><path
               inkscape:connector-curvature="0"
               id="path3232"
               style="fill:#dbef1c;fill-opacity:1;fill-rule:nonzero;stroke:none"
               d="m 8141.583,7958.9414 c 1.0278,-0.048 2.0479,-0.088 3.0518,-0.1191 -0.1245,-0.9732 -0.2666,-1.9444 -0.4253,-2.9121 -0.9868,-0.017 -1.9903,-0.015 -3.0025,0 0.1407,1.0025 0.2657,2.0147 0.376,3.0293 z" /><path
               inkscape:connector-curvature="0"
               id="path3234"
               style="fill:#d1ea28;fill-opacity:1;fill-rule:nonzero;stroke:none"
               d="m 8141.207,7955.9121 c 1.0122,-0.017 2.0157,-0.018 3.0025,0 -0.1587,-0.9673 -0.3345,-1.9317 -0.5264,-2.8912 -0.979,-0.039 -1.9614,-0.064 -2.9453,-0.074 0.1724,0.9732 0.3286,1.9649 0.4692,2.9668 z" /><path
               inkscape:connector-curvature="0"
               id="path3236"
               style="fill:#f0f804;fill-opacity:1;fill-rule:nonzero;stroke:none"
               d="m 8145.1636,7964.6787 c 0.7417,-0.083 1.4936,-0.167 2.2466,-0.2515 -0.047,-0.9506 -0.1202,-1.8994 -0.2159,-2.8457 -0.7568,0.047 -1.5078,0.1011 -2.2397,0.1656 0.088,0.9765 0.1582,1.9541 0.209,2.9316 z" /><path
               inkscape:connector-curvature="0"
               id="path3238"
               style="fill:#eaf50b;fill-opacity:1;fill-rule:nonzero;stroke:none"
               d="m 8144.9546,7961.7471 c 0.7319,-0.064 1.4829,-0.1187 2.2397,-0.1656 -0.096,-0.9462 -0.2148,-1.8901 -0.3535,-2.831 -0.7529,0.021 -1.4951,0.046 -2.206,0.072 0.1245,0.9731 0.2314,1.9482 0.3198,2.9248 z" /><path
               inkscape:connector-curvature="0"
               id="path3240"
               style="fill:#eaf50b;fill-opacity:1;fill-rule:nonzero;stroke:none"
               d="m 8147.4102,7964.4272 c 0.7529,-0.084 1.5063,-0.1694 2.25,-0.2524 -0.04,-0.8911 -0.1055,-1.8008 -0.1963,-2.7173 -0.752,0.038 -1.5137,0.077 -2.2696,0.124 0.096,0.9463 0.1685,1.8951 0.2159,2.8457 z" /><path
               inkscape:connector-curvature="0"
               id="path3242"
               style="fill:#e6f310;fill-opacity:1;fill-rule:nonzero;stroke:none"
               d="m 8147.1943,7961.5815 c 0.7559,-0.047 1.5176,-0.086 2.2696,-0.124 -0.091,-0.9165 -0.2076,-1.8393 -0.3506,-2.7573 -0.7554,0.011 -1.5195,0.029 -2.2725,0.05 0.1387,0.9409 0.2573,1.8848 0.3535,2.831 z" /><path
               inkscape:connector-curvature="0"
               id="path3244"
               style="fill:#def019;fill-opacity:1;fill-rule:nonzero;stroke:none"
               d="m 8144.6348,7958.8223 c 0.7109,-0.025 1.4531,-0.05 2.206,-0.072 -0.1391,-0.9409 -0.2988,-1.8784 -0.4761,-2.812 -0.7397,-0.01 -1.4653,-0.015 -2.1552,-0.028 0.1587,0.9677 0.3008,1.9389 0.4253,2.9121 z" /><path
               inkscape:connector-curvature="0"
               id="path3246"
               style="fill:#d2ea27;fill-opacity:1;fill-rule:nonzero;stroke:none"
               d="m 8144.2095,7955.9102 c 0.6899,0.014 1.4155,0.02 2.1552,0.028 -0.1772,-0.9341 -0.3725,-1.8643 -0.5834,-2.7901 -0.7129,-0.055 -1.4175,-0.098 -2.0982,-0.1294 0.1919,0.9595 0.3677,1.9239 0.5264,2.8912 z" /><path
               inkscape:connector-curvature="0"
               id="path3248"
               style="fill:#dbef1c;fill-opacity:1;fill-rule:nonzero;stroke:none"
               d="m 8146.8408,7958.7505 c 0.753,-0.021 1.5171,-0.039 2.2725,-0.05 -0.1431,-0.918 -0.3125,-1.8311 -0.5098,-2.7271 -0.7456,-0.019 -1.499,-0.028 -2.2388,-0.035 0.1773,0.9336 0.337,1.8711 0.4761,2.812 z" /><path
               inkscape:connector-curvature="0"
               id="path3250"
               style="fill:#d1ea28;fill-opacity:1;fill-rule:nonzero;stroke:none"
               d="m 8146.3647,7955.9385 c 0.7398,0.01 1.4932,0.016 2.2388,0.035 -0.1968,-0.896 -0.4209,-1.7749 -0.6733,-2.6254 -0.7144,-0.078 -1.4356,-0.1446 -2.1489,-0.1993 0.2109,0.9258 0.4062,1.856 0.5834,2.7901 z" /><path
               inkscape:connector-curvature="0"
               id="path3252"
               style="fill:#def019;fill-opacity:1;fill-rule:nonzero;stroke:none"
               d="m 8149.6602,7964.1748 c 0.7431,-0.083 1.477,-0.1655 2.1904,-0.2441 -0.033,-0.8321 -0.089,-1.6988 -0.1738,-2.5791 -0.7188,0.035 -1.461,0.069 -2.2129,0.1059 0.091,0.9165 0.1562,1.8262 0.1963,2.7173 z" /><path
               inkscape:connector-curvature="0"
               id="path3254"
               style="fill:#dbef1c;fill-opacity:1;fill-rule:nonzero;stroke:none"
               d="m 8149.4639,7961.4575 c 0.7519,-0.037 1.4941,-0.071 2.2129,-0.1059 -0.084,-0.8809 -0.1973,-1.7749 -0.3428,-2.6621 -0.7188,0 -1.4653,-5e-4 -2.2207,0.011 0.143,0.918 0.2597,1.8408 0.3506,2.7573 z" /><path
               inkscape:connector-curvature="0"
               id="path3256"
               style="fill:#d2ea27;fill-opacity:1;fill-rule:nonzero;stroke:none"
               d="m 8151.8506,7963.9307 c -0.065,-1.6641 -0.2256,-3.4668 -0.5166,-5.2412 0.7182,0 1.4082,0.018 2.0508,0.045 0.3095,1.664 0.477,3.3594 0.5361,4.9692 -0.6631,0.072 -1.3564,0.148 -2.0703,0.2271 z" /><path
               inkscape:connector-curvature="0"
               id="path3258"
               style="fill:#d5ec24;fill-opacity:1;fill-rule:nonzero;stroke:none"
               d="m 8149.1133,7958.7002 c 0.7554,-0.011 1.5019,-0.016 2.2207,-0.011 -0.1455,-0.8877 -0.3233,-1.7681 -0.5386,-2.6202 -0.7085,-0.048 -1.4468,-0.077 -2.1919,-0.096 0.1973,0.896 0.3667,1.8091 0.5098,2.7271 z" /><path
               inkscape:connector-curvature="0"
               id="path3260"
               style="fill:#cfe92b;fill-opacity:1;fill-rule:nonzero;stroke:none"
               d="m 8148.6035,7955.9731 c 0.7451,0.019 1.4834,0.048 2.1919,0.096 -0.2153,-0.8525 -0.4673,-1.6767 -0.7612,-2.4526 -0.6831,-0.1011 -1.3897,-0.1909 -2.104,-0.269 0.2524,0.8505 0.4765,1.7294 0.6733,2.6254 z" /><path
               inkscape:connector-curvature="0"
               id="path3262"
               style="fill:#cfe92b;fill-opacity:1;fill-rule:nonzero;stroke:none"
               d="m 8151.334,7958.6895 c -0.291,-1.7749 -0.7119,-3.5215 -1.2998,-5.0728 0.6836,0.1011 1.3442,0.2134 1.9658,0.3379 0.625,1.4834 1.0757,3.1157 1.3848,4.7798 -0.6426,-0.026 -1.3326,-0.041 -2.0508,-0.045 z" /><path
               inkscape:connector-curvature="0"
               id="path3264"
               style="fill:#cce82e;fill-opacity:1;fill-rule:nonzero;stroke:none"
               d="m 8153.9209,7963.7036 c 0.6265,-0.067 1.2256,-0.1304 1.7895,-0.1885 -0.1098,-3.1469 -0.7656,-6.3037 -2.0673,-9.1782 -0.5039,-0.1372 -1.0562,-0.2646 -1.6431,-0.3823 1.25,2.9668 1.8027,6.5293 1.9209,9.749 z" /><path
               inkscape:connector-curvature="0"
               id="path3266"
               style="fill:#b7d30b;fill-opacity:1;fill-rule:nonzero;stroke:none"
               d="m 8110.6396,7957.5791 c 1.2842,-0.5249 2.8936,-1.04 4.5948,-1.5039 0.291,-1.6377 0.6928,-3.2393 1.1992,-4.7256 -1.4961,0.7114 -2.897,1.5029 -4.0366,2.3047 -0.7222,1.2251 -1.314,2.5356 -1.7574,3.9248 z" /><path
               inkscape:connector-curvature="0"
               id="path3268"
               style="fill:#bcd814;fill-opacity:1;fill-rule:nonzero;stroke:none"
               d="m 8112.397,7953.6543 c 1.1396,-0.8018 2.5405,-1.5933 4.0366,-2.3047 0.2529,-0.7432 0.5317,-1.458 0.8359,-2.1338 -1.3755,0.7876 -2.6538,1.6748 -3.6943,2.667 -0.4238,0.5684 -0.8174,1.1592 -1.1782,1.7715 z" /><path
               inkscape:connector-curvature="0"
               id="path3270"
               style="fill:#c3df1f;fill-opacity:1;fill-rule:nonzero;stroke:none"
               d="m 8113.5752,7951.8828 c 1.0405,-0.9922 2.3188,-1.8794 3.6943,-2.667 0.3042,-0.6758 0.6338,-1.3125 0.9873,-1.9004 -1.2124,0.8716 -2.3261,1.8511 -3.3213,2.9302 -0.4819,0.523 -0.936,1.0689 -1.3603,1.6372 z" /><path
               inkscape:connector-curvature="0"
               id="path3272"
               style="fill:#c7e325;fill-opacity:1;fill-rule:nonzero;stroke:none"
               d="m 8115.2344,7956.0752 c 0.291,-1.6377 0.6928,-3.2393 1.1992,-4.7256 0.7476,-0.3564 1.519,-0.6929 2.2939,-1.0005 -0.4008,1.565 -0.7158,3.2652 -0.9018,5.0738 -0.8672,0.2011 -1.7407,0.4204 -2.5913,0.6523 z" /><path
               inkscape:connector-curvature="0"
               id="path3274"
               style="fill:#cbe72c;fill-opacity:1;fill-rule:nonzero;stroke:none"
               d="m 8117.8257,7955.4229 c 0.186,-1.8086 0.501,-3.5088 0.9018,-5.0738 0.7745,-0.3076 1.5518,-0.5869 2.3116,-0.8291 -0.2998,1.6631 -0.5215,3.4712 -0.6602,5.3579 -0.8252,0.1602 -1.686,0.3438 -2.5532,0.545 z" /><path
               inkscape:connector-curvature="0"
               id="path3276"
               style="fill:#c7e325;fill-opacity:1;fill-rule:nonzero;stroke:none"
               d="m 8116.4336,7951.3496 c 1.4951,-0.7129 3.0859,-1.3452 4.6055,-1.8296 0.2998,-1.6631 0.6777,-3.1811 1.1284,-4.4878 -1.3882,0.648 -2.6987,1.4116 -3.9107,2.2832 -0.7075,1.1763 -1.3173,2.5474 -1.8232,4.0342 z" /><path
               inkscape:connector-curvature="0"
               id="path3278"
               style="fill:#cce82e;fill-opacity:1;fill-rule:nonzero;stroke:none"
               d="m 8120.3789,7954.8779 c 3.2813,-0.7568 7.8018,-1.3833 11.5127,-1.5947 -0.269,-4.042 -0.4927,-7.7266 -0.6753,-10.6787 -3.2178,0.3076 -6.2871,1.1382 -9.0488,2.4277 -0.9009,2.6133 -1.5112,6.0723 -1.7886,9.8457 z" /><path
               inkscape:connector-curvature="0"
               id="path3280"
               style="fill:#cce82e;fill-opacity:1;fill-rule:nonzero;stroke:none"
               d="m 8131.8916,7953.2832 c 3.9028,-0.3516 7.8765,-0.4204 11.7915,-0.2642 -0.7539,-3.7797 -1.7417,-7.2006 -2.895,-9.6303 -3.1021,-0.8819 -6.3677,-1.0874 -9.5718,-0.7842 0.1826,2.9521 0.4063,6.6367 0.6753,10.6787 z" /><path
               inkscape:connector-curvature="0"
               id="path3282"
               style="fill:#cce82e;fill-opacity:1;fill-rule:nonzero;stroke:none"
               d="m 8143.6831,7953.019 c 2.7227,0.1255 5.8311,0.439 8.3169,0.9356 -1.1812,-2.8071 -2.7104,-5.585 -4.7349,-7.4663 -1.9155,-1.3799 -4.0957,-2.4219 -6.477,-3.0996 1.1533,2.4297 2.1411,5.8506 2.895,9.6303 z" /><path
               inkscape:connector-curvature="0"
               id="path3284"
               style="fill:#cce82e;fill-opacity:1;fill-rule:nonzero;stroke:none"
               d="m 8152,7953.9546 c 0.5869,0.1177 1.1392,0.2451 1.6431,0.3823 -1.2251,-2.7036 -2.9493,-4.9917 -5.0669,-6.8144 -0.4214,-0.3633 -0.8589,-0.708 -1.3111,-1.0342 2.0245,1.8813 3.5537,4.6592 4.7349,7.4663 z" /></g></g></g></g><path
       inkscape:connector-curvature="0"
       id="path3286"
       style="fill:#ffffff;fill-opacity:1;fill-rule:nonzero;stroke:none"
       d="m 247.26885,653.65283 c 0,-3.02588 -5.76026,-5.81006 -12.86475,-6.21924 -7.10449,-0.40918 -12.86426,1.71289 -12.86426,4.73829 0,3.02636 5.75977,5.81103 12.86426,6.21972 7.10449,0.40869 12.86475,-1.71338 12.86475,-4.73877 z" /><path
       inkscape:connector-curvature="0"
       id="path3288"
       style="fill:#ff1a00;fill-opacity:1;fill-rule:nonzero;stroke:none"
       d="m 235.72002,648.74072 c 0,0 -10.87695,24.59766 -10.87695,24.59766 -0.5542,1.25342 -2.0044,2.23975 -3.37354,2.29639 0,0 -14.53418,0.59033 -14.53418,0.59033 -0.75537,0.0308 -1.39209,-0.55615 -1.42236,-1.31153 -0.0312,-0.75488 0.55615,-1.39209 1.31103,-1.42285 0,0 14.53418,-0.59082 14.53418,-0.59082 0.3335,-0.0132 0.84717,-0.36279 0.98243,-0.66845 0,0 10.61035,-23.99512 10.61035,-23.99512 1.33691,-0.0996 2.30615,0.26074 2.76904,0.50439 z" /></g></svg>